<svg xmlns="http://www.w3.org/2000/svg" viewBox="0 0 900 504" role="img" aria-labelledby="title">
  <title>Department Referral Volume</title>
  <defs>
    <linearGradient id="cardGlow" x1="0%" y1="0%" x2="100%" y2="100%">
      <stop offset="0%" stop-color="#f4f7fb" />
      <stop offset="100%" stop-color="#e8eef8" />
    </linearGradient>
  </defs>
  <style>
    .title { font: 700 24px Georgia, 'Times New Roman', serif; fill: #0f172a; }
    .subtitle { font: 600 13px 'Segoe UI', Tahoma, sans-serif; fill: #475569; }
    .label { font: 600 12px 'Segoe UI', Tahoma, sans-serif; fill: #334155; }
    .axis { font: 11px 'Segoe UI', Tahoma, sans-serif; fill: #64748b; }
    .value { font: 700 12px 'Segoe UI', Tahoma, sans-serif; fill: #0f172a; }
    .grid { stroke: #d7e0ea; stroke-width: 1; stroke-dasharray: 4 6; }
  </style>
  <rect x="0" y="0" width="900" height="504" rx="28" fill="url(#cardGlow)" />
  
  <text class="title" x="42" y="48">Department Referral Volume</text>
  <text class="subtitle" x="42" y="76">Patient count by referred department or walk-in status</text>
  <line x1="220" y1="439" x2="820" y2="439" stroke="#94a3b8" stroke-width="1.2" />
  <line class="grid" x1="220.00" y1="95" x2="220.00" y2="439" /><text class="axis" x="220.00" y="463" text-anchor="middle">0</text><line class="grid" x1="340.00" y1="95" x2="340.00" y2="439" /><text class="axis" x="340.00" y="463" text-anchor="middle">1080</text><line class="grid" x1="460.00" y1="95" x2="460.00" y2="439" /><text class="axis" x="460.00" y="463" text-anchor="middle">2160</text><line class="grid" x1="580.00" y1="95" x2="580.00" y2="439" /><text class="axis" x="580.00" y="463" text-anchor="middle">3240</text><line class="grid" x1="700.00" y1="95" x2="700.00" y2="439" /><text class="axis" x="700.00" y="463" text-anchor="middle">4320</text><line class="grid" x1="820.00" y1="95" x2="820.00" y2="439" /><text class="axis" x="820.00" y="463" text-anchor="middle">5400</text>
  <rect x="220" y="104.03" width="600.00" height="24.94" rx="12" fill="#0f766e" /><rect x="220" y="147.03" width="204.44" height="24.94" rx="12" fill="#f59e0b" /><rect x="220" y="190.03" width="110.56" height="24.94" rx="12" fill="#2563eb" /><rect x="220" y="233.03" width="30.67" height="24.94" rx="12" fill="#dc2626" /><rect x="220" y="276.03" width="27.56" height="24.94" rx="12" fill="#7c3aed" /><rect x="220" y="319.03" width="21.44" height="24.94" rx="12" fill="#059669" /><rect x="220" y="362.03" width="19.78" height="24.94" rx="12" fill="#ea580c" /><rect x="220" y="405.03" width="9.56" height="24.94" rx="12" fill="#475569" />
  <text class="label" x="208" y="120.50" text-anchor="end">No Referral</text><text class="value" x="830.00" y="120.50">5,400 patients</text><text class="label" x="208" y="163.50" text-anchor="end">General Practice</text><text class="value" x="434.44" y="163.50">1,840 patients</text><text class="label" x="208" y="206.50" text-anchor="end">Orthopedics</text><text class="value" x="340.56" y="206.50">995 patients</text><text class="label" x="208" y="249.50" text-anchor="end">Physiotherapy</text><text class="value" x="260.67" y="249.50">276 patients</text><text class="label" x="208" y="292.50" text-anchor="end">Cardiology</text><text class="value" x="257.56" y="292.50">248 patients</text><text class="label" x="208" y="335.50" text-anchor="end">Neurology</text><text class="value" x="251.44" y="335.50">193 patients</text><text class="label" x="208" y="378.50" text-anchor="end">Gastroenterology</text><text class="value" x="249.78" y="378.50">178 patients</text><text class="label" x="208" y="421.50" text-anchor="end">Renal</text><text class="value" x="239.56" y="421.50">86 patients</text>

</svg>
